<?xml version="1.0" encoding="UTF-8"?>
<!DOCTYPE svg PUBLIC "-//W3C//DTD SVG 1.1//EN" "http://www.w3.org/Graphics/SVG/1.1/DTD/svg11.dtd">
<!-- Creator: CorelDRAW -->
<svg xmlns="http://www.w3.org/2000/svg" xml:space="preserve" width="2048px" height="2048px" style="shape-rendering:geometricPrecision; text-rendering:geometricPrecision; image-rendering:optimizeQuality; fill-rule:evenodd; clip-rule:evenodd"
viewBox="0 0 2048 2048"
 xmlns:xlink="http://www.w3.org/1999/xlink">
 <defs>
  <style type="text/css">
   <![CDATA[
    .fil2 {fill:none}
    .fil0 {fill:#424242}
    .fil1 {fill:#424242;fill-rule:nonzero}
   ]]>
  </style>
 </defs>
 <g id="Layer_x0020_1">
  <metadata id="CorelCorpID_0Corel-Layer"/>
  <path class="fil0" d="M841.262 254.997l0 0zm-200.9 173.492c0,48.4241 19.6311,92.2678 51.3662,124.003 31.7351,31.7351 75.5788,51.3662 124.003,51.3662 48.4241,0 92.2678,-19.6311 124.004,-51.3662 31.7351,-31.7351 51.3662,-75.5788 51.3662,-124.003 0,-39.0827 -12.8622,-75.241 -34.5981,-104.477 -22.2603,-29.9386 -53.8158,-52.5378 -90.3721,-63.502 -7.98071,-2.39292 -16.2898,-4.2437 -24.8717,-5.5004l-0.00590552 -0.0141732 0.00472441 -0.0283465 -1.26024 -0.15c-8.05276,-1.11969 -16.1599,-1.69843 -24.2669,-1.69843 -48.4241,0 -92.2678,19.6311 -124.003,51.3662 -31.4776,31.4788 -51.3662,79.193 -51.3662,124.004zm47.9811 -5.80985c18.8209,4.38544 40.4469,3.64607 60.6993,-1.44803 20.7732,-5.23111 40.7138,-15.2209 55.4091,-29.1803 2.12244,3.3 4.36654,6.51851 6.73701,9.65316 23.524,31.1103 58.6961,53.3079 107.204,63.528l10.8154 2.22992 7.32284 1.51772c-6.32835,18.8882 -16.9618,35.8028 -30.7335,49.5744 -23.048,23.0469 -54.893,37.304 -90.0662,37.304 -35.1733,0 -67.0182,-14.2571 -90.065,-37.304 -23.0469,-23.0469 -37.304,-54.8918 -37.304,-90.065 0,-1.93583 0.0437008,-3.86103 0.12874,-5.77559l-0.147638 -0.034252z"/>
  <path class="fil0" d="M541.502 1125.13l1.40551 -10.9606c3.19252,-24.8941 -2.11772,-53.3717 -12.1028,-76.252l-35.6044 -81.58 172.449 -81.5056 -88.9548 360.607 -39.6036 174.735c0.857481,0.0011811 1.77874,-0.0590552 2.55118,-0.0850394l93.4064 -3.16299 -0.0011811 264.882c1.32047,32.9138 13.2591,67.1493 43.9489,83.419 9.36379,4.96418 19.702,7.65473 30.3118,7.65473 10.6099,0 20.948,-2.69173 30.3118,-7.65591 32.6445,-17.3067 44.074,-54.9402 44.074,-89.6894l0 -261.534 100.009 0 0 261.534c0,34.7492 11.4284,72.3839 44.074,89.6906 9.36379,4.96418 19.702,7.65473 30.3118,7.65473 10.6099,0 20.948,-2.69173 30.3118,-7.65591 32.6445,-17.3067 44.074,-54.9402 44.074,-89.6894l0 -254.262 31.7457 -0.251575c20.8288,-0.165354 41.6929,-0.288189 62.5241,-0.583465 -0.113386,-4.32638 -1.62992,-10.4091 -2.45788,-13.0913l-156.012 -505.544 177.851 140.365c0.819686,0.646063 1.5874,1.31693 2.34213,2.01614 13.2626,10.1551 27.5658,14.0965 44.3611,11.165 20.3929,-3.55866 40.1114,-16.4858 55.6548,-29.5595l1.35354 -1.13976c13.0925,-12.9709 27.7984,-25.3418 41.5158,-37.6583 19.8083,-17.7874 39.4028,-35.8725 58.0642,-54.8682 17.85,-18.1701 64.4894,-67.9902 65.9575,-94.3418 0.941339,-16.9051 -4.88032,-33.3225 -16.161,-45.9366l-0.662599 -0.741733c-12.0473,-10.3287 -27.0614,-19.5236 -43.2426,-20.4248 -44.1957,-2.4626 -122.425,80.6446 -154.701,107.889l-22.5355 19.0228 -20.7945 -20.9103c-17.6764,-17.7744 -34.7268,-36.1559 -51.7713,-54.5315 -56.5713,-60.9874 -117.259,-128.138 -198.291,-155.628 -0.333071,0.284646 -0.646063,0.772442 -0.787796,1.07008 -7.77402,16.3441 -20.6209,29.1189 -36.3886,37.8095 -12.9343,7.12914 -27.4547,11.0433 -42.2197,11.3705 -14.765,0.328347 -29.5784,-2.88544 -42.828,-9.42993 -16.5012,-8.15197 -29.765,-21.1229 -38.6599,-37.2012 -0.307087,-0.0200788 -0.700394,0.0767717 -0.921261,0.164173 -58.9666,23.3469 -117.173,56.7402 -171.147,89.915 -33.6402,20.6776 -66.7489,42.2209 -99.6249,64.0914 -34.0571,22.6559 -129.047,65.2607 -134.941,110.322 -0.0590552,11.4697 9.39213,39.8303 13.1055,50.6658 10.3382,30.1583 23.204,60.1997 37.6831,88.5946 13.8662,27.1937 49.1658,89.602 79.7257,103.899 29.2382,2.3315 56.2796,-3.75709 67.8225,-33.6756l3.46772 -8.98701z"/>
  <path class="fil1" d="M1706.21 547.741c6.73111,-5.6941 7.56969,-15.7689 1.87559,-22.5 -5.6941,-6.73111 -15.7689,-7.56969 -22.5,-1.87559l-329.785 275.068c-6.73111,5.6941 -7.56969,15.7689 -1.87559,22.5 5.6941,6.73111 15.7689,7.56969 22.5,1.87559l329.785 -275.068z"/>
 </g>
 <rect class="fil2" width="2048" height="2048"/>
</svg>
